<svg width="258" height="184" viewBox="0 0 258 184" fill="none" xmlns="http://www.w3.org/2000/svg">
<g clip-path="url(#clip0_5_16)">
<path d="M90.2942 39.6853C93.0443 35.4057 96.303 30.8362 101.407 29.4387C107.317 27.8205 113.388 31.0353 118.538 34.2077C133.938 43.6949 148.769 53.9764 162.963 65.005L162.948 65.1712L129.797 63.0201C121.813 62.502 113.555 61.9124 106.499 58.3587C103.822 57.0107 101.212 55.2089 98.178 55.0834C94.4087 54.9274 91.1221 57.4044 88.5392 59.9923C73.261 75.3007 68.8399 98.7103 51.6993 112.16C62.5075 87.0799 75.413 62.8455 90.2942 39.6853Z" fill="#F2F2F2"/>
<path d="M1.52588e-05 163.692H1.51314C14.6839 147.591 27.0764 130.963 38.6908 113.805C46.8018 101.834 54.51 89.6321 61.8155 77.198C62.2458 76.4659 62.6749 75.7327 63.1029 74.9983C66.126 69.8091 69.0784 64.5852 71.9601 59.3264C74.5124 54.6704 77.0071 49.9874 79.4442 45.2774C80.1397 43.9313 80.8175 42.5815 81.4916 41.2254C83.08 38.0415 84.6364 34.8387 86.3108 31.6968C87.9998 28.5219 90.0158 25.2154 92.8835 22.83C93.2521 22.5191 93.6374 22.2262 94.038 21.9527C94.4922 21.6394 94.969 21.3564 95.4652 21.1058C95.5146 21.0788 95.5655 21.0551 95.6159 21.0281C96.8277 20.4199 98.1617 20.0579 99.5315 19.9653C102.382 19.7899 105.011 20.8999 107.485 22.1077C111.659 24.1556 115.769 26.3217 119.817 28.6058C133.263 36.2092 145.952 44.9408 157.728 54.6939L157.818 54.768C173.172 67.4554 186.896 81.7895 198.71 97.478C199.072 97.964 199.926 97.4983 199.56 97.0132C198.126 95.1002 196.662 93.2086 195.167 91.3383C184.024 77.3865 171.343 64.5841 157.334 53.1453C155.767 51.8632 154.182 50.5992 152.579 49.3532C144.711 43.2236 136.47 37.53 127.898 32.3013C125.273 30.6987 122.619 29.1445 119.934 27.6385C118.156 26.6365 116.365 25.6547 114.563 24.693C112.282 23.4784 109.991 22.2773 107.66 21.1536C105.376 20.0469 102.952 19.055 100.341 19.0181C98.4605 18.9857 96.6029 19.4111 94.9482 20.2528C94.8988 20.2798 94.8442 20.3035 94.7941 20.3337C93.7828 20.8663 92.8437 21.512 91.9973 22.2569C88.207 25.5598 85.6718 30.7423 83.6998 34.7201C82.7065 36.7277 81.7013 38.7264 80.6841 40.7162C76.8438 48.2772 72.854 55.7707 68.7147 63.1967C66.5023 67.1611 64.248 71.1086 61.9518 75.0392C61.6004 75.65 61.242 76.2605 60.8833 76.8678C52.5857 90.9741 43.767 104.796 34.4273 118.333C23.3364 134.406 12.3207 148.799 1.52588e-05 163.692Z" fill="#E4E4E4"/>
<path d="M139.333 109.795C139.333 109.795 141.073 113.598 140.664 114.141C140.254 114.684 145.678 112.33 145.678 112.33C145.678 112.33 143.938 108.527 143.938 108.074C143.938 107.622 139.333 109.795 139.333 109.795Z" fill="#FFB9B9"/>
<path d="M79.5951 162.659C79.5951 162.659 79.4415 159.631 76.2937 159.983L79.5951 162.659Z" fill="#090814"/>
<path d="M80.4833 159.778C79.6131 159.778 78.9077 159.114 78.9077 158.296C78.9077 157.477 79.6131 156.813 80.4833 156.813C81.3535 156.813 82.0589 157.477 82.0589 158.296C82.0589 159.114 81.3535 159.778 80.4833 159.778Z" fill="#6C63FF" fill-opacity="0.7"/>
<path d="M80.2951 160.792H80.7399V163.721H80.2951V160.792Z" fill="#090814"/>
<path d="M186.555 73.6543C186.555 74.3957 186.581 75.1308 186.632 75.8598C186.918 80.0641 188.047 84.1796 189.959 87.9891C189.974 88.0217 189.991 88.0519 190.006 88.0821C190.095 88.2587 190.186 88.4353 190.28 88.6096C190.849 89.6871 191.48 90.7345 192.17 91.7471C195.322 96.3958 199.643 100.242 204.751 102.947C209.858 105.651 215.595 107.13 221.454 107.253L221.101 126.366L216.494 124.084L215.672 125.555L221.066 128.228L220.407 163.726L220.399 164.2L223.961 164.946L223.954 164.469L222.832 107.256C227.549 107.192 232.204 106.247 236.529 104.477C240.854 102.706 244.762 100.145 248.026 96.9414C248.251 96.723 248.474 96.4975 248.691 96.2744C248.701 96.2651 248.708 96.2558 248.716 96.2489C251.435 93.4582 253.635 90.2556 255.222 86.776C255.187 86.8131 255.15 86.848 255.115 86.8852C258.701 78.995 258.945 70.1131 255.795 62.0595C252.646 54.006 246.342 47.3907 238.176 43.5693C238.053 43.5112 237.927 43.4554 237.803 43.3973C229.725 39.7363 220.481 39.0646 211.901 41.5152C203.322 43.9658 196.034 49.3599 191.483 56.6282C191.266 56.9721 191.056 57.3231 190.853 57.6763C188.026 62.5814 186.548 68.0743 186.555 73.6543Z" fill="#E5E5E5"/>
<path d="M191.364 88.1002C165.508 88.1002 144.547 68.3783 144.547 44.0501C144.547 19.7219 165.508 0 191.364 0C217.22 0 238.18 19.7219 238.18 44.0501C238.18 68.3783 217.22 88.1002 191.364 88.1002Z" fill="#AE8A71"/>
<path opacity="0.2" d="M225.931 14.6281C236.095 36.9996 225.061 62.8885 201.284 72.4525C192.264 76.0812 182.259 76.952 172.684 74.942C163.109 72.932 154.447 68.1427 147.921 61.2505C158.084 83.6227 185.599 94.0068 209.375 84.4447C233.151 74.8826 244.188 48.9934 234.026 26.6219C232.035 22.2388 229.301 18.1888 225.931 14.6298L225.931 14.6281Z" fill="black" fill-opacity="0.7"/>
<path d="M188.83 166.766L193.612 165.504L193.602 165.02L192.17 91.7471L192.098 88.0937L192.095 87.9868L191.846 75.1859L191.483 56.6305V56.6282L191.236 44.0503H191.105L190.853 57.6763L190.524 75.4113L190.29 87.9961V88.0891L190.28 88.6073V88.6097L189.825 113.14L189.779 115.578L188.84 166.278L188.83 166.766Z" fill="#090814"/>
<path d="M183.789 110.15L191.528 113.983L190.449 115.911L182.71 112.077L183.789 110.15Z" fill="#090814"/>
<path d="M192.28 175.633H214.355V176.098H192.28V175.633Z" fill="#CBCBCB"/>
<path d="M151.773 183.535H173.848V184H151.773V183.535Z" fill="#CBCBCB"/>
<path d="M88.7872 177.493H110.862V177.957H88.7872V177.493Z" fill="#CBCBCB"/>
<path d="M32.9576 157.736V144.215C32.9576 144.215 27.3579 153.801 32.9576 157.736Z" fill="#F1F1F1"/>
<path d="M98.524 158.578L109.109 149.435C109.109 149.435 97.8176 152.035 98.524 158.578Z" fill="#F1F1F1"/>
<path d="M208.291 161.834V148.314C208.291 148.314 202.692 157.899 208.291 161.834Z" fill="#F1F1F1"/>
<path d="M207.945 161.832L218.53 152.688C218.53 152.688 207.239 155.289 207.945 161.832Z" fill="#F1F1F1"/>
<path d="M170.253 171.595V154.783C170.253 154.783 163.29 166.702 170.253 171.595Z" fill="#F1F1F1"/>
<path d="M169.823 171.592L182.986 160.222C182.986 160.222 168.945 163.456 169.823 171.592Z" fill="#F1F1F1"/>
<path d="M57.1044 169.538L57.2403 169.987L98.6945 158.878L129.923 165.355L169.86 171.774L169.915 171.76L188.83 166.766L193.612 165.504L208.217 161.646L220.399 164.2L223.961 164.946L231.705 166.57L231.811 166.117L223.954 164.469L220.407 163.726L208.202 161.167L208.143 161.181L193.602 165.02L188.84 166.278L169.836 171.298L130.019 164.899L98.6796 158.399L98.6179 158.413L57.1044 169.538Z" fill="#CBCBCB"/>
<path d="M131.268 28.2228L128.107 25.8445C130.563 25.5889 131.571 26.8495 131.985 27.8467C133.903 27.0974 135.991 28.0791 135.991 28.0791L129.668 30.2391C129.987 29.4374 130.542 28.7379 131.269 28.2225L131.268 28.2228Z" fill="#090814"/>
<path d="M50.9175 44.2479L47.7571 41.8697C50.2123 41.614 51.2211 42.8746 51.6351 43.8718C53.553 43.1226 55.6412 44.1043 55.6412 44.1043L49.3179 46.2642C49.6369 45.4625 50.1922 44.763 50.9187 44.2476L50.9175 44.2479Z" fill="#090814"/>
<path d="M138.184 72.6124L135.023 70.2342C137.479 69.9785 138.487 71.2391 138.901 72.2364C140.819 71.4871 142.907 72.4688 142.907 72.4688L136.584 74.6288C136.903 73.827 137.458 73.1275 138.185 72.6122L138.184 72.6124Z" fill="#090814"/>
<path d="M161.111 174.811L158.079 175.747L152.291 166.468L156.766 165.085L161.111 174.811Z" fill="#FFB9B9"/>
<path d="M135.642 177.264H132.299L131.69 167.913L136.619 168.055L135.642 177.264Z" fill="#FFB9B9"/>
<path d="M147.675 112.406L146.835 110.824L139.689 114.186L139.899 115.571L138.533 117.252C138.533 117.252 136.221 118.438 136.641 122.393L137.061 126.151L137.587 130.996L133.909 142.96L132.017 158.781L130.651 171.537L137.271 171.24L143.366 150.475L154.086 172.822L161.441 171.041L151.353 148.893L150.092 139.598C150.092 139.598 150.931 134.655 146.939 131.293L147.57 129.513V127.32L149.672 116.856L147.675 112.406Z" fill="#090814"/>
<path opacity="0.2" d="M147.871 135.019L148.109 135.082L143.485 150.507L143.247 150.444L147.871 135.019Z" fill="black" fill-opacity="0.7"/>
<path d="M147.465 131.985H137.166V130.996H147.465V131.985Z" fill="#D6D6E3" fill-opacity="0.7"/>
<path d="M137.166 132.578C136.933 132.578 136.745 132.135 136.745 131.589C136.745 131.043 136.933 130.6 137.166 130.6C137.398 130.6 137.586 131.043 137.586 131.589C137.586 132.135 137.398 132.578 137.166 132.578Z" fill="#D6D6E3" fill-opacity="0.7"/>
<path d="M136.895 107.752C135.41 105.198 136.408 101.995 139.123 100.598C141.838 99.202 145.242 100.141 146.726 102.695C148.211 105.25 147.213 108.453 144.498 109.849C141.783 111.246 138.379 110.307 136.895 107.752Z" fill="#FFB9B9"/>
<path d="M150.383 103.342C147.646 103.342 145.427 101.254 145.427 98.6782C145.427 96.1026 147.646 94.0147 150.383 94.0147C153.12 94.0147 155.339 96.1026 155.339 98.6782C155.339 101.254 153.12 103.342 150.383 103.342Z" fill="#090814"/>
<path d="M156.673 98.1788C156.868 98.7967 156.925 99.446 156.841 100.086C156.756 100.726 156.531 101.342 156.181 101.896C155.83 102.45 155.361 102.929 154.804 103.304C154.247 103.679 153.613 103.941 152.942 104.073C152.271 104.206 151.579 104.206 150.908 104.075C150.238 103.943 149.603 103.681 149.045 103.307C148.487 102.933 148.018 102.454 147.667 101.9C147.315 101.347 147.09 100.731 147.004 100.091C147.359 101.213 148.15 102.169 149.219 102.767C150.288 103.366 151.557 103.565 152.775 103.324C153.992 103.084 155.069 102.421 155.791 101.467C156.513 100.514 156.828 99.3403 156.673 98.1788Z" fill="#090814"/>
<path d="M137.092 103.76C136.947 104.965 137.228 106.182 137.892 107.222C138.557 108.262 139.567 109.066 140.766 109.511C141.966 109.956 143.288 110.016 144.527 109.682C145.767 109.349 146.855 108.639 147.623 107.665C148.39 106.69 148.795 105.504 148.774 104.291C148.753 103.078 148.307 101.906 147.506 100.955C146.705 100.005 145.593 99.3296 144.342 99.0341C143.092 98.7385 141.773 98.8393 140.589 99.3208C139.61 98.5771 138.397 98.8084 137.41 99.592C136.295 100.478 135.964 101.087 135.098 102.544C135.949 102.657 136.242 103.648 137.092 103.76Z" fill="#090814"/>
<path d="M157.686 119.613C157.623 121.175 157.499 124.25 157.499 124.407C157.499 124.572 155.021 129.399 153.951 131.476C153.875 131.623 153.807 131.755 153.746 131.871C153.663 132.033 153.533 132.168 153.371 132.262C153.209 132.355 153.022 132.403 152.832 132.4L148.155 132.321C147.898 132.317 147.653 132.22 147.47 132.05C147.287 131.88 147.182 131.651 147.175 131.409L146.653 112.046C146.651 111.982 146.663 111.919 146.688 111.859C146.713 111.8 146.75 111.746 146.797 111.7C146.845 111.654 146.901 111.618 146.964 111.593C147.026 111.568 147.093 111.555 147.161 111.555H153.193C153.448 111.555 153.697 111.623 153.913 111.75C154.129 111.878 154.303 112.06 154.413 112.276L157.309 117.911C157.58 118.441 157.71 119.025 157.686 119.613Z" fill="#6C63FF" fill-opacity="0.7"/>
<path d="M147.093 130.08C145.893 129.396 144.814 128.538 143.897 127.539C141.766 125.283 140.469 122.438 140.203 119.43C139.965 116.857 140.508 114.945 141.816 113.745C143.479 112.221 145.742 112.442 145.837 112.452L145.939 112.463L147.471 113.684L147.037 114.166L145.665 113.074C145.245 113.054 143.531 113.05 142.278 114.202C141.125 115.263 140.652 117.004 140.87 119.375C141.124 122.239 142.355 124.948 144.38 127.1C145.253 128.05 146.277 128.869 147.415 129.526L147.093 130.08Z" fill="#6C63FF" fill-opacity="0.7"/>
<path d="M155.798 122.724L155.843 122.93L147.667 124.508L147.622 124.302L155.798 122.724Z" fill="#090814"/>
<path d="M150.408 111.552L150.942 123.786L150.717 123.795L150.183 111.56L150.408 111.552Z" fill="#090814"/>
<path d="M157.686 119.613C157.623 121.175 157.499 124.25 157.499 124.407C157.499 124.572 155.021 129.399 153.951 131.476L155.946 120.576C156.023 120.157 156.217 119.765 156.509 119.439C156.8 119.113 157.178 118.867 157.604 118.724C157.671 119.015 157.699 119.314 157.686 119.613Z" fill="#090814"/>
<path d="M145.428 142.455C145.605 142.241 145.729 141.993 145.793 141.729C145.857 141.464 145.858 141.19 145.797 140.925C145.735 140.66 145.613 140.411 145.439 140.195C145.264 139.98 145.041 139.803 144.786 139.677L145.192 135.456L142.526 134.599L142.042 140.566C141.847 140.984 141.82 141.454 141.968 141.888C142.115 142.322 142.427 142.691 142.844 142.923C143.261 143.156 143.754 143.237 144.229 143.151C144.705 143.064 145.131 142.817 145.426 142.455H145.428Z" fill="#FFB7B7"/>
<path d="M147.173 116.984C147.225 116.343 147.049 115.704 146.672 115.168C146.296 114.631 145.74 114.228 145.093 114.022C144.522 113.845 143.906 113.846 143.336 114.024C142.726 114.219 142.196 114.591 141.823 115.085C141.449 115.579 141.25 116.171 141.253 116.778L141.053 138.211L145.777 138.372L147.173 116.984Z" fill="#F2F2F2"/>
<path d="M132.765 176.31C132.765 176.31 135.301 176.34 135.757 176.234C136.214 176.127 136.83 179.869 135.473 180.053C134.115 180.238 128.586 180.284 128.586 180.284C128.586 180.284 124.287 179.864 124.666 178.792C125.044 177.72 131.002 175.92 131.002 175.92C131.002 175.92 131.847 174.604 132.765 176.31Z" fill="#090814"/>
<path d="M158.427 175.305C158.427 175.305 160.872 174.676 161.279 174.455C161.686 174.234 163.375 177.669 162.125 178.199C160.875 178.728 155.578 180.208 155.578 180.208C155.578 180.208 151.324 180.919 151.374 179.791C151.423 178.663 156.619 175.388 156.619 175.388C156.619 175.388 157.045 173.905 158.427 175.305Z" fill="#090814"/>
</g>
<defs>
<clipPath id="clip0_5_16">
<rect width="258" height="184" fill="white" transform="matrix(-1 0 0 1 258 0)"/>
</clipPath>
</defs>
</svg>
