<svg width="19" height="21" viewBox="0 0 19 21" fill="none" xmlns="http://www.w3.org/2000/svg">
<path fill-rule="evenodd" clip-rule="evenodd" d="M9.50159 0.833313C4.53089 0.833313 0.501587 4.93723 0.501587 9.99998C0.501587 15.0627 4.53089 19.1666 9.50159 19.1666C14.4723 19.1666 18.5016 15.0627 18.5016 9.99998C18.5016 4.93723 14.4723 0.833313 9.50159 0.833313ZM6.35159 7.70831C6.35159 7.28699 6.43306 6.86979 6.59137 6.48054C6.74967 6.09128 6.9817 5.7376 7.2742 5.43968C7.56671 5.14176 7.91396 4.90543 8.29613 4.7442C8.67831 4.58297 9.08792 4.49998 9.50159 4.49998C9.91525 4.49998 10.3249 4.58297 10.707 4.7442C11.0892 4.90543 11.4365 5.14176 11.729 5.43968C12.0215 5.7376 12.2535 6.09128 12.4118 6.48054C12.5701 6.86979 12.6516 7.28699 12.6516 7.70831C12.6516 8.55922 12.3197 9.37527 11.729 9.97695C11.1382 10.5786 10.337 10.9166 9.50159 10.9166C8.66615 10.9166 7.86494 10.5786 7.2742 9.97695C6.68346 9.37527 6.35159 8.55922 6.35159 7.70831ZM15.1338 14.5686C14.4599 15.4315 13.6033 16.1283 12.6281 16.607C11.6529 17.0857 10.5842 17.334 9.50159 17.3333C8.41902 17.334 7.35027 17.0857 6.37505 16.607C5.39983 16.1283 4.54332 15.4315 3.86939 14.5686C5.32829 13.5026 7.31909 12.75 9.50159 12.75C11.6841 12.75 13.6749 13.5026 15.1338 14.5686Z" fill="white"/>
</svg>
