<svg width="19" height="19" viewBox="0 0 19 19" fill="none" xmlns="http://www.w3.org/2000/svg">
<path fill-rule="evenodd" clip-rule="evenodd" d="M11.2131 0.139333C10.8728 -4.09782e-08 10.4406 0 9.57712 0C8.71363 0 8.28234 -4.09782e-08 7.94117 0.139333C7.71669 0.230767 7.51257 0.36555 7.34054 0.535926C7.16852 0.706302 7.03199 0.908908 6.93882 1.13208C6.85238 1.3365 6.81928 1.57575 6.80548 1.92317C6.79892 2.17479 6.7283 2.42063 6.60026 2.63758C6.47222 2.85453 6.29095 3.03547 6.07349 3.16342C5.85164 3.28634 5.60225 3.35147 5.34842 3.35275C5.0946 3.35403 4.84456 3.29143 4.62147 3.17075C4.31065 3.00758 4.08535 2.91775 3.86281 2.88842C3.37596 2.8251 2.88369 2.95551 2.49263 3.25142C2.2002 3.47325 1.98409 3.84358 1.55281 4.58333C1.1206 5.32308 0.90542 5.6925 0.856682 6.05458C0.792311 6.53675 0.924732 7.02442 1.22452 7.41033C1.36062 7.58633 1.55281 7.73392 1.84984 7.91908C2.28848 8.19133 2.56987 8.65517 2.56987 9.16667C2.56987 9.67817 2.28848 10.142 1.85075 10.4133C1.55281 10.5994 1.36062 10.747 1.2236 10.923C1.07606 11.1139 0.967722 11.3318 0.904764 11.5645C0.841805 11.7971 0.825467 12.0398 0.856682 12.2788C0.90542 12.6399 1.1206 13.0103 1.55281 13.75C1.98501 14.4897 2.2002 14.8592 2.49263 15.0819C2.88253 15.378 3.37543 15.5082 3.86281 15.4449C4.08535 15.4156 4.31065 15.3258 4.62147 15.1626C4.84468 15.0417 5.09489 14.9791 5.34889 14.9803C5.60289 14.9816 5.85245 15.0468 6.07441 15.1699C6.52133 15.4266 6.78617 15.8987 6.80548 16.4102C6.81928 16.7585 6.85238 16.9968 6.93882 17.2013C7.12642 17.6504 7.4869 18.0079 7.94117 18.194C8.28142 18.3333 8.71363 18.3333 9.57712 18.3333C10.4406 18.3333 10.8728 18.3333 11.2131 18.194C11.4375 18.1026 11.6417 17.9678 11.8137 17.7974C11.9857 17.627 12.1222 17.4244 12.2154 17.2013C12.3019 16.9968 12.335 16.7585 12.3487 16.4102C12.3671 15.8987 12.6329 15.4257 13.0807 15.1699C13.3026 15.047 13.552 14.9819 13.8058 14.9806C14.0596 14.9793 14.3097 15.0419 14.5328 15.1626C14.8436 15.3258 15.0689 15.4156 15.2914 15.4449C15.7788 15.5091 16.2717 15.378 16.6616 15.0819C16.954 14.8601 17.1701 14.4897 17.6014 13.75C18.0336 13.0103 18.2488 12.6408 18.2976 12.2788C18.3286 12.0398 18.3122 11.797 18.249 11.5644C18.1859 11.3317 18.0774 11.1138 17.9297 10.923C17.7936 10.747 17.6014 10.5994 17.3044 10.4143C16.8658 10.142 16.5844 9.67817 16.5844 9.16667C16.5844 8.65517 16.8658 8.19133 17.3035 7.92C17.6014 7.73392 17.7936 7.58633 17.9306 7.41033C18.0782 7.21947 18.1865 7.00149 18.2495 6.76886C18.3124 6.53623 18.3288 6.29351 18.2976 6.05458C18.2488 5.69342 18.0336 5.32308 17.6014 4.58333C17.1692 3.84358 16.954 3.47417 16.6616 3.25142C16.2705 2.95551 15.7783 2.8251 15.2914 2.88842C15.0689 2.91775 14.8436 3.00758 14.5328 3.17075C14.3096 3.29159 14.0593 3.35428 13.8053 3.353C13.5513 3.35172 13.3018 3.28651 13.0798 3.16342C12.8625 3.03536 12.6815 2.85436 12.5536 2.63742C12.4257 2.42048 12.3552 2.1747 12.3487 1.92317C12.335 1.57483 12.3019 1.3365 12.2154 1.13208C12.1222 0.908908 11.9857 0.706302 11.8137 0.535926C11.6417 0.36555 11.4375 0.230767 11.2131 0.139333ZM9.57712 11.9167C11.1128 11.9167 12.357 10.6856 12.357 9.16667C12.357 7.64775 11.1119 6.41667 9.57712 6.41667C8.04233 6.41667 6.79721 7.64775 6.79721 9.16667C6.79721 10.6856 8.04233 11.9167 9.57712 11.9167Z" fill="white"/>
</svg>
