<svg width="38" height="29" viewBox="0 0 38 29" fill="none" xmlns="http://www.w3.org/2000/svg">
<path d="M24.7981 15.6562C24.7981 17.1895 24.187 18.66 23.0994 19.7442C22.0117 20.8284 20.5366 21.4375 18.9984 21.4375C17.4602 21.4375 15.9851 20.8284 14.8974 19.7442C13.8098 18.66 13.1987 17.1895 13.1987 15.6562C13.1987 14.123 13.8098 12.6525 14.8974 11.5683C15.9851 10.4841 17.4602 9.875 18.9984 9.875C20.5366 9.875 22.0117 10.4841 23.0994 11.5683C24.187 12.6525 24.7981 14.123 24.7981 15.6562Z" fill="white"/>
<path d="M5.07924 5.25C3.84871 5.25 2.66858 5.73728 1.79846 6.60463C0.928341 7.47199 0.439514 8.64837 0.439514 9.875L0.439514 23.75C0.439514 24.9766 0.928341 26.153 1.79846 27.0204C2.66858 27.8877 3.84871 28.375 5.07924 28.375H32.9176C34.1482 28.375 35.3283 27.8877 36.1984 27.0204C37.0685 26.153 37.5574 24.9766 37.5574 23.75V9.875C37.5574 8.64837 37.0685 7.47199 36.1984 6.60463C35.3283 5.73728 34.1482 5.25 32.9176 5.25H30.1987C28.9683 5.24974 27.7884 4.76229 26.9184 3.89488L24.9976 1.98012C24.1277 1.11271 22.9477 0.625262 21.7173 0.625H16.2796C15.0491 0.625262 13.8692 1.11271 12.9993 1.98012L11.0784 3.89488C10.2085 4.76229 9.02856 5.24974 7.79812 5.25H5.07924ZM6.23918 9.875C5.93154 9.875 5.63651 9.75318 5.41898 9.53634C5.20145 9.3195 5.07924 9.02541 5.07924 8.71875C5.07924 8.41209 5.20145 8.118 5.41898 7.90116C5.63651 7.68432 5.93154 7.5625 6.23918 7.5625C6.54681 7.5625 6.84184 7.68432 7.05937 7.90116C7.2769 8.118 7.39911 8.41209 7.39911 8.71875C7.39911 9.02541 7.2769 9.3195 7.05937 9.53634C6.84184 9.75318 6.54681 9.875 6.23918 9.875ZM27.118 15.6562C27.118 17.8028 26.2625 19.8615 24.7398 21.3794C23.2171 22.8973 21.1519 23.75 18.9984 23.75C16.845 23.75 14.7798 22.8973 13.2571 21.3794C11.7344 19.8615 10.8789 17.8028 10.8789 15.6562C10.8789 13.5097 11.7344 11.451 13.2571 9.9331C14.7798 8.41523 16.845 7.5625 18.9984 7.5625C21.1519 7.5625 23.2171 8.41523 24.7398 9.9331C26.2625 11.451 27.118 13.5097 27.118 15.6562Z" fill="white"/>
</svg>
